<?xml version="1.0" encoding="UTF-8"?>
<svg id="Capa_2" xmlns="http://www.w3.org/2000/svg" viewBox="0 0 1013 438">
  <g id="Capa_1-2" data-name="Capa_1">
    <g>
      <path d="M544.09,14.6c44.16,0,85.67,17.2,116.9,48.42,31.22,31.22,48.42,72.74,48.42,116.9v78.17c0,44.16-17.2,85.67-48.42,116.9-31.22,31.22-72.74,48.42-116.9,48.42H179.91c-44.16,0-85.67-17.2-116.9-48.42-31.22-31.22-48.42-72.74-48.42-116.9v-78.17c0-44.16,17.2-85.67,48.42-116.9,31.22-31.22,72.74-48.42,116.9-48.42h364.17M544.09,0H179.91C80.55,0,0,80.55,0,179.91v78.17c0,99.36,80.55,179.91,179.91,179.91h364.17c99.36,0,179.91-80.55,179.91-179.91v-78.17C724,80.55,643.45,0,544.09,0h0Z"/>
      <g>
        <path d="M287.17,218.1c12.43-1.38,24.86-2.55,37.29-3.56,6.22-.5,12.43-1.1,18.65-1.52l18.65-1.3,18.65-1.3,18.65-1.1c6.22-.39,12.43-.66,18.65-.99,6.22-.31,12.43-.67,18.65-.91,49.72-2.26,99.44-3.59,149.17-4.19,49.72-.58,99.44-.52,149.17.28,49.72.81,99.44,2.39,149.17,4.94l.3.02c3.3.17,5.84,2.98,5.67,6.28-.16,3.19-2.81,5.66-5.96,5.67l-149.17.25-74.58.12-74.58-.09-149.17-.25c-24.86-.07-49.72-.03-74.58-.18l-74.58-.36c-.5,0-.9-.41-.89-.9,0-.46.35-.84.8-.89h.09Z"/>
        <polygon points="857.58 308.75 1013 219.01 857.58 129.25 857.58 308.75"/>
      </g>
    </g>
  </g>
</svg>
